<?xml version="1.0" encoding="utf-8"?>
<!DOCTYPE svg PUBLIC "-//W3C//DTD SVG 1.1//EN" "http://www.w3.org/Graphics/SVG/1.1/DTD/svg11.dtd">
<svg version="1.1" id="Layer_1" xmlns="http://www.w3.org/2000/svg" xmlns:xlink="http://www.w3.org/1999/xlink" x="0px" y="0px"
	 viewBox="0 0 1624.3163 1676.2513" enable-background="new 0 0 1624.3163 1676.2513" xml:space="preserve">
<path d="M1587.1805,1565.2804c-4.4252-19.1344-11.4507-39.0503-20.5699-59.5955c-3.8881-8.7594-11.3383-15.4076-20.4122-18.4901
	c-20.3622-6.9166-40.7808-17.5455-61.2345-30.4922c-8.1833-5.1797-13.6023-13.7839-14.583-23.4191
	c-1.1525-11.3245-3.7849-21.7864-8.2996-31.1511c-8.5474-17.7296-28.5236-27.2338-47.3889-21.6211
	c-8.3473,2.4834-16.7087,7.1323-25.0846,14.0487c-7.3208,6.045-16.4329,9.6305-25.9266,9.5549
	c-19.4744-0.1559-35.04-9.2834-47.8607-24.7115c-1.9188-2.309-4.1019-4.407-6.4863-6.2313
	c-31.1385-23.823-45.4591-26.499-59.5502-28.8867c-4.2312-0.7168-8.5596-0.7686-12.8-0.1086
	c-30.5321,4.7512-43.0212-0.5083-34.1361-17.6268c22.2332-51.3934,52.8073-96.9178,91.9723-136.3976
	c25.9078-31.1306,44.9106-62.5947,53.9587-94.5396c0.3756-1.3267,0.856-2.6228,1.4716-3.8568
	c17.4165-34.9102,41.4835-63.6311,71.1208-87.168c3.894-3.0924,6.6036-7.5483,7.2219-12.4822
	c1.2201-9.7377-6.4786-14.7508-22.35-15.4347c-38.1765,5.6699-67.5875,33.0856-93.6438,68.3358
	c-5.1611,6.9817-13.8208,10.4489-22.3556,8.8569c-16.2433-3.0297-35.1752-5.46-54.4215-0.0579
	c-12.6644,3.5547-22.2126,14.1411-24.3348,27.1228c-3.3567,20.5341-3.5808,40.1637,2.0693,64.7168
	c0.9763,4.2432,0.6538,8.6987-1.0671,12.6982c-13.2881,30.8788-33.4271,54.6154-58.8315,72.8623
	c-2.2522,1.6176-5.3838-0.0907-5.2615-2.8608c4.2183-95.524,6.0229-184.4567-0.2999-251.1939
	c-13.5104-67.4335-65.8561-86.2166-139.9013-77.8168c-5.679,0.6443-10.9303-3.6775-10.825-9.392
	c0.0063-0.3435,0.0299-0.6889,0.0718-1.0354c0.0038-0.0318,0.0077-0.0637,0.0119-0.0955c0.5372-4.2118,3.639-7.6842,7.6797-8.9882
	c23.3743-7.5432,44.1476-18.2322,62.0242-32.4246c1.4541-1.1546,0.6289-3.5108-1.2279-3.4919
	c-17.1886,0.1754-29.455-5.6483-36.5732-17.7462c-0.6042-1.0272-0.1877-2.347,0.9115-2.8074
	c65.4254-27.4033,112.1543-67.3524,117.3823-135.1494c0.3071-3.9837-3.8926-6.7548-7.4204-4.8789l-43.6938,23.2341
	c-1.8717,0.9952-3.7303-1.3116-2.3744-2.9409c51.2883-61.6294,73.7679-127.99,46.0236-202.5986
	c-2.7262-7.3304-13.1401-7.2261-15.6523,0.1804c-6.9923,20.6147-15.5684,39.2554-26.178,55.3615
	c-1.3346,2.026-3.2711,3.5934-5.506,4.5373c-8.6171,3.6393-11.8414-1.053-10.7555-12.4036c0.1991-2.0823,0.8838-4.1033,2.079-5.8201
	c11.299-16.2316,19.3051-38.7605,25.262-65.2073c19.1028-80.2181,7.1444-151.6118-31.174-215.5164
	c-3.585-5.9788-12.7455-3.694-13.0697,3.2697l-3.7732,81.0321c-0.1991,4.2754-3.3054,7.9752-7.5375,8.6153
	c-0.0634,0.0096-0.1265,0.0186-0.1897,0.0272c-5.5089,0.7456-10.244-3.9409-10.0474-9.4967
	c2.5587-72.3114-5.6199-133.6617-29.4218-179.0634c-1.3287-2.5347-4.6972-3.0354-6.7584-1.0497
	c-3.2461,3.1274-6.4666,7.1081-9.6569,12.0788c-2.0033,3.121-6.7514,2.3723-7.7289-1.2051
	C968.8253,98.5965,936.5841,41.4348,875.6147,38.1292c-2.0566-0.1115-3.1147,2.4161-1.6309,3.8445
	c60.8369,58.5657,100.5815,130.5089,106.0342,224.2012c0.1646,2.8297,0.1607,5.6812-0.0049,8.5109
	c-5.9089,100.978-45.714,177.9964-108.8986,238.4881c-1.3638,1.3057-2.6724,2.6654-3.8983,4.1014
	c-27.4673,32.175-52.2652,68.9646-74.0199,111.0145c-6.3315,12.2384-9.2419,25.973-8.2365,39.7155
	c3.0034,41.0538,3.5456,80.6476,1.0104,118.416c-0.4512,6.7228-4.8408,12.6449-11.2576,14.6997
	c-11.4995,3.6823-21.8144,0.8092-31.1807-7.3141c-2.0269-1.7579-4.2227-3.3287-6.5117-4.7285
	c-8.532-5.2177-9.8571-13.2784-6.0109-23.3794c1.4581-3.8287,3.6238-7.3561,6.236-10.5123
	c14.6404-17.6894,25.3758-36.1614,27.7681-56.3052c0.2714-2.2856,0.8209-4.5399,1.5494-6.7233
	c10.7915-32.3452,1.3467-48.8373-32.8815-45.9148c-11.1511,0.397-13.5099-3.983-11.2515-10.8718
	c0.7725-2.356,2.2601-4.4309,4.2023-5.972c25.5511-20.2751,19.9799-44.7068-1.7424-71.2956
	c-4.5691-5.5923-11.608-8.6359-18.8102-8.1068c-21.8289,1.6036-33.1469-6.5323-33.0087-25.2832
	c0.0275-3.7344,1.4102-7.3546,3.9109-10.1282c21.2299-23.5471,13.3621-44.0157-9.5484-62.8931
	c-0.2566-0.2115-0.4972-0.4547-0.7058-0.7138c-28.3431-35.1937-58.9518-37.886-91.1057-18.4146
	c-2.927,1.7724-6.6379-0.4891-6.3367-3.8975c0.8829-9.9949,0.9688-19.3728-0.0665-27.8831c-0.356-2.9276-3.6378-4.5554-6.0997-2.932
	c-4.1481,2.7351-7.6654,6.6961-10.5752,11.8382c-1.7635,3.1163-6.4941,1.9077-6.6773-1.6682
	c-0.174-3.3913,0.3438-7.0349,1.6153-10.9535c0.8256-2.5448-1.2929-5.2735-3.8998-4.6722
	c-0.0816,0.0187-0.1625,0.0398-0.2434,0.0629c-2.4236,0.6951-4.835-1.0446-4.8561-3.566
	c-0.188-22.6522-9.8011-35.9076-28.5335-40.0709c-0.3257-0.0725-0.6721-0.1186-1.0055-0.1334
	c-15.654-0.6968-20.6762,8.0798-16.6266,24.9407c0.1319,0.5496,0.3581,1.092,0.688,1.5509c2.3093,3.2119,5.3915,4.64,9.6629,3.3233
	c1.0799-0.3329,1.9456-1.19,2.3072-2.2606c1.7859-5.2886,4.8125-8.456,9.1854-9.3221c0.8358-0.1656,1.7224-0.0747,2.4769,0.3213
	c6.2756,3.2934,9.8588,9.4274,11.3973,17.719c0.1038,0.5596,0.1013,1.1442-0.0044,1.7034
	c-1.6427,8.6852-5.1016,16.7223-10.6987,24.002c-0.5444,0.7079-1.3182,1.2344-2.1811,1.464
	c-13.4423,3.5768-24.2588-1.9169-33.3109-13.5063c-0.5508-0.7055-1.3189-1.2286-2.1862-1.4499
	c-68.0315-17.3539-109.7587,11.3256-126.9175,83.001c-1.93,8.062-8.0174,14.4227-15.8878,17.0258
	c-24.6876,8.1656-37.9169,22.9247-32.0586,48.6678c0.4334,1.9048,1.4698,3.6232,2.8876,4.967
	c1.6995,1.6108,3.0517,3.2181,4.0421,4.8218c3.8225,6.1898-1.1832,13.9317-8.4471,13.5324
	c-12.3221-0.6774-22.3178,5.2952-30.769,15.6821c-1.7836,2.1922-3.696,4.2789-5.7469,6.2232
	c-23.7503,22.5174-21.6568,48.7267,1.6447,77.9657c2.79,3.5009,1.8613,8.6775-2.0328,10.8859
	c-18.3698,10.4179-28.8713,25.0666-32.4579,43.4333c-0.1331,0.6813-0.2265,1.3836-0.2867,2.0753
	c-3.6346,41.7618,7.6422,63.4259,30.6261,69.3113c0.6515,0.1667,1.3236,0.2957,1.9906,0.3804
	c14.9985,1.9059,27.0052-4.495,35.5559-20.491c6.2139-11.5182,2.6888-15.6501-5.8175-16.004
	c-6.0358-0.251-11.2932-4.3271-12.6639-10.2106c-4.8373-20.7635,0.7725-31.3574,18.7919-29.8712
	c6.6623,0.5494,12.0247,5.9196,12.3849,12.5948c0.0124,0.2303,0.0222,0.4621,0.029,0.6954
	c0.0883,2.9752-0.7226,5.9763-2.4868,8.3736c-2.5587,3.477-3.2268,10.549-2.7214,19.8526c0.137,2.522,0.8975,5.0085,2.3354,7.085
	c5.1548,7.444,13.1199,9.428,23.0012,7.6891c5.5665-0.9797,9.9316-5.3829,11.0011-10.9329
	c2.4467-12.6968,0.3729-19.1659-5.6145-20.2435c-6.8341-1.23-12.2159-7.3176-11.5031-14.2249
	c0.6654-6.4467,4.5526-9.5062,11.0411-9.8307c7.5804-0.3791,13.9164,5.8956,13.7627,13.4839
	c-0.2726,13.4688,1.1591,28.8604,3.4558,45.2281c0.0761,0.5422,0.1142,1.0966,0.1362,1.6436
	c0.1888,4.7045,1.5787,8.6337,4.6649,11.4681c2.8441,2.6121,4.343,6.3795,4.1728,10.2374l-1.5078,34.1785
	c-0.1756,3.9809-0.9365,7.8966-1.9491,11.7505c-1.3288,5.0568-0.088,9.0289,5.0433,11.3585
	c10.8983,4.9477,20.1858,12.8102,26.9173,22.7066c23.424,34.4373,51.3094,51.8959,85.3329,45.9962
	c3.9155-0.6789,7.9164-0.8223,11.8688-0.4118c44.3027,4.6013,76.8685-15.6093,95.8904-64.4534
	c2.215-5.6877,7.0394-10.1296,13.048-11.2025c14.3588-2.5641,20.2667,15.1851,19.6099,48.7136
	c-0.1131,5.7766-2.1387,11.321-5.5128,16.011c-17.2385,23.9609-17.2557,53.8864-8.0587,87.0032
	c4.973,17.907-4.7543,39.6682-21.629,47.4552c-11.0463,5.0973-25.5418,6.5275-44.8035,3.7731
	c-9.8538-1.4092-19.0128-6.1488-25.6292-13.5856c-24.4344-27.464-62.992-32.7544-83.2801-17.6189l-253.0659-194.095
	c-8.8563-57.3587-30.1912-90.1365-48.362-102.8209c-24.3754-17.0153-59.6928-23.1294-79.125,4.0824
	c-21.1,29.5473-21.067,70.1941,24.6139,91.0117c14.3588,6.5436,46.3105-5.4352,46.8867-17.53
	c0.7018-14.7319-1.0806-31.698-11.7066-33.499c-12.059-2.0439-10.9972,9.8504-17.2898,13.3276
	c-13.7215,7.5822-24.3971-11.5395-20.8919-26.295c4.786-20.1472,30.3919-26.3087,45.0256-9.7255
	c29.1945,33.0838,34.3428,95.8564,27.6157,170.4968c-11.2757,125.1093-30.3273,232.9084,13.0874,330.908
	c27.7314,46.2031,59.5607,77.5903,98.3198,83.9238L87.5759,1508.8403l-20.2087-40.9174
	c-1.398,29.1918-12.9249,67.3859-25.0986,95.4014c27.5007-13.3038,65.1908-26.385,94.3008-28.9768l-41.7174-18.5227
	l174.2271-181.5132c15.6957,0.3014,32.487-3.3578,50.547-11.604c-9.07,41.1838,13.0794,77.0303,63.396,108.0614
	c-5.8864,33.0055,9.8737,65.3368,38.9021,97.2552c71.1874,82.6124,178.0849,87.1558,317.7004,20.1714
	c54.8492-23.8885,108.0406-29.2673,158.1298,0c17.3033,13.3544,21.4735,30.12,10.3859,50.8489
	c-21.5358,17.6317-27.677,4.2434-25.6346-25.6345c1.6811-33.1388-33.1387-27.3756-36.5006,0
	c-2.7673,53.5537,17.5067,77.3418,71.0803,58.1129c30.8277-32.9017,31.0573-69.2946-10.5659-110.4628
	c-15.6575-14.9594-39.6031-21.5127-68.9136-23.3868l-228.4896-271.4459c40.2029-44.4045,79.808-83.0093,116.9708-97.9187
	c6.7904-2.7242,14.5517-1.076,19.6218,4.1991c62.8464,65.3888,124.1852,114.3573,181.1862,116.0558
	c6.5043,0.1937,11.9446,4.9995,12.7633,11.4551c10.1843,80.2971,26.562,153.9861,50.4093,219.7062
	c4.1016,11.3035,12.0836,20.8827,22.6097,26.6959c5.3008,2.9274,10.9125,5.5096,16.8304,7.7511
	c13.2363,5.0126,28.1246,2.2622,38.9369-6.871c17.5697-14.8412,37.9653-27.9303,60.7938-39.5114
	c9.5659-4.8525,20.6191-5.9574,30.988-3.2111c35.3735,9.3688,67.2825,20.8229,95.5358,34.4773
	c12.606,6.0922,26.7444,8.1375,40.6395,6.4213c42.9337-5.3025,82.2594-2.3854,118.2461,8.139
	c62.3815,17.63,119.3768,36.7026,162.2869,59.5481C1582.3,1576.0205,1588.5502,1571.202,1587.1805,1565.2804z M562.7643,1119.9125
	c5.3598,6.7308-1.1956,21.6544-10.4621,35.2656l-19.0515-21.8737C545.4135,1121.4558,557.9831,1113.9083,562.7643,1119.9125z
	 M183.8291,1043.5491c0.9426-82.0873-0.7912-164.4857-3.0017-190.7883c-0.2679-3.187-0.5844-6.2885-0.9227-9.3503l244.0741,187.1985
	c-0.0815,0.1138-0.1734,0.218-0.2535,0.3331c-18.5872,26.6844-9.3636,84.514,12.4705,115.1227
	c-0.4833,0.2485-0.9427,0.5591-1.3401,0.9729l-124.2133,129.4078C251.0456,1240.9266,182.6938,1142.4226,183.8291,1043.5491z
	 M426.2468,1294.6117c-13.3965,10.6226-21.7206,1.2563-26.6552-10.8062c-3.8574-9.4293-18.643-13.1516-29.1766-4.6826
	c-6.7478,5.4252-10.4267,11.4238-19.2709,11.1664c-9.627-0.2804-20.2482-3.3773-31.3264-8.8381l122.3139-127.429
	c0.1094-0.1139,0.1893-0.2438,0.2858-0.3649c1.5317,1.609,3.1017,3.1083,4.7212,4.4369c24.8408,20.3789,44.6021,24.2202,65.9174,0
	c3.6188-5.8007,8.2337-11.8533,13.2073-17.4563l19.9136,22.864c-3.1346,3.9618-6.3441,7.6034-9.3474,10.6213
	c-27.2749,27.4076-58.8695,46.7675-79.4251,75.2827C457.4044,1249.406,437.0018,1286.0836,426.2468,1294.6117z M610.6715,1513.3759
	c-90.4073,3.5164-170.3529-60.4374-161.6019-129.2245c1.1888-9.3447,6.8507-17.512,15.056-22.1392
	c60.0286-33.8525,107.2039-72.7449,132.983-120.0262c1.5441-2.8319,3.3208-5.5262,5.2979-8.068l221.5576,263.2107
	C764.2903,1496.079,686.1876,1510.439,610.6715,1513.3759z"/>
</svg>
