<?xml version="1.0" encoding="UTF-8"?>
<!DOCTYPE svg PUBLIC "-//W3C//DTD SVG 1.1//EN" "http://www.w3.org/Graphics/SVG/1.1/DTD/svg11.dtd">
<svg version="1.1" xmlns="http://www.w3.org/2000/svg" xmlns:xlink="http://www.w3.org/1999/xlink" x="0" y="0" width="115" height="146" viewBox="0, 0, 115, 146">
  <defs>
    <clipPath id="Clip_1">
      <path d="M0,146 L114.225,146 L114.225,0.022 L0,0.022 z"/>
    </clipPath>
  </defs>
  <g id="Layer_1">
    <g clip-path="url(#Clip_1)">
      <path d="M109.109,145.939 C107.154,145.928 105.265,145.685 103.871,144.115 C103.48,143.676 103.098,143.955 102.829,144.059 C99.144,145.492 95.628,144.873 92.153,143.317 C91.306,142.938 90.443,142.614 89.662,142.097 C88.617,141.404 87.763,142.216 86.98,142.641 C85.295,143.556 83.565,144.2 81.645,144.002 C79.38,143.768 77.316,142.913 75.785,141.204 C74.173,139.407 74.47,136.208 76.541,134.338 C78.344,132.71 78.068,131.208 77.277,129.183 C75.632,124.969 72.318,123.683 68.23,123.655 C67.424,123.65 66.245,123.375 66.028,124.82 C65.967,125.218 65.394,125.38 64.992,125.526 C62.328,126.495 59.557,126.974 56.741,126.949 C54.327,126.927 51.907,126.632 49.632,125.745 C48.903,125.461 47.868,125.302 47.929,124.096 C47.944,123.805 47.658,123.891 47.479,123.858 C44.509,123.313 41.583,123.699 39.313,125.616 C37.395,127.236 36.135,129.543 36.196,132.269 C36.215,133.109 36.905,133.543 37.411,134.08 C38.601,135.342 39.381,136.753 39.327,138.572 C39.285,139.982 38.718,141.151 37.649,141.915 C34.567,144.117 31.275,144.897 27.738,142.906 C27.367,142.697 26.973,142.53 26.591,142.339 C25.636,141.86 24.866,141.867 23.809,142.471 C21.633,143.716 19.255,144.515 16.688,144.783 C14.768,144.984 13.019,144.635 11.245,144.054 C11,143.973 10.637,143.655 10.312,144.085 C9.454,145.219 8.158,145.686 6.866,145.819 C4.745,146.036 2.504,146.407 0.801,144.515 C0.695,144.398 0.526,144.299 0.489,144.164 C0.045,142.562 -0.058,140.885 0.028,139.271 C0.09,138.108 0.962,137.073 2.103,136.467 C2.24,136.394 2.382,136.3 2.529,136.283 C4.624,136.039 6.143,134.655 7.824,133.603 C9.637,132.47 11.6,131.629 13.492,130.65 C14.025,130.374 14.057,130.162 13.846,129.716 C13.026,127.983 12.271,126.149 12.495,124.255 C12.698,122.549 12.494,120.909 12.429,119.24 C12.366,117.623 12.973,116.255 14.091,115.139 C14.722,114.51 14.845,113.694 15.041,112.938 C15.61,110.747 16.414,108.682 17.796,106.873 C18.06,106.527 18.354,106.132 18.726,105.951 C19.875,105.394 20.28,104.729 19.398,103.597 C18.553,102.512 19.149,101.337 19.459,100.295 C19.687,99.528 19.53,99.138 19.04,98.653 C16.776,96.409 14.829,93.935 13.518,90.998 C12.437,88.576 11.723,86.088 11.423,83.422 C11.016,79.808 11.276,76.297 12.413,72.873 C13.485,69.645 15.509,67.082 18.155,64.928 C20.327,63.16 22.638,61.769 25.367,61.087 C25.686,61.007 25.994,61.036 26.298,60.97 C26.861,60.846 27.197,60.542 27.069,59.907 C27.053,59.83 27.072,59.741 27.041,59.673 C26.574,58.638 27.208,57.418 26.752,56.529 C26.332,55.71 25.133,55.353 24.584,54.505 C23.565,52.936 23.71,51.238 24.036,49.459 C24.478,47.041 24.784,44.629 23.831,42.166 C23.165,40.447 23.223,38.574 24.343,36.903 C24.431,36.771 24.81,36.42 24.439,36.28 C23.011,35.739 23.356,34.491 23.512,33.569 C24.281,29.014 26.258,24.986 29.109,21.355 C30.284,19.858 31.504,18.413 32.895,17.12 C37.513,12.824 42.841,9.879 49.069,8.649 C49.868,8.492 50.646,8.262 51.461,8.155 C52.308,8.043 53.091,6.397 52.734,5.419 C52.087,3.645 53.74,0.961 55.554,0.285 C57.553,-0.459 59.93,0.427 60.859,2.288 C61.397,3.367 61.793,4.435 61.359,5.708 C61.034,6.659 62.104,8.001 63.113,8.183 C68.475,9.15 73.49,11.026 77.883,14.279 C82.516,17.71 86.225,21.992 88.672,27.249 C89.765,29.598 90.649,32.052 90.686,34.721 C90.696,35.424 90.608,35.999 89.871,36.195 C89.405,36.319 89.593,36.553 89.716,36.739 C90.972,38.629 90.903,40.651 90.166,42.652 C89.333,44.914 89.61,47.189 90.081,49.396 C90.731,52.436 90.273,54.792 87.525,56.203 C87.438,56.248 87.326,56.357 87.324,56.439 C87.28,57.74 87.36,59.043 87.094,60.339 C86.992,60.836 87.554,60.89 87.908,60.97 C94.996,62.569 99.727,66.892 101.998,73.698 C103.039,76.818 103.11,80.14 102.72,83.49 C102.246,87.569 100.837,91.221 98.574,94.577 C97.698,95.876 96.762,97.176 95.548,98.174 C94.571,98.976 94.306,99.874 94.811,100.925 C95.455,102.268 94.946,103.369 94.313,104.487 C94.178,104.726 93.782,104.837 94.326,105.165 C96.74,106.623 97.929,108.96 98.662,111.565 C99.177,113.396 99.984,115.053 101.05,116.635 C102.001,118.046 101.885,119.676 101.474,121.276 C101.373,121.669 101.296,122.012 101.435,122.472 C102.194,124.984 101.3,127.312 100.382,129.58 C100.099,130.278 100.214,130.47 100.801,130.75 C103.776,132.17 106.752,133.593 109.343,135.679 C109.796,136.044 110.4,135.962 110.901,136.049 C113.079,136.427 114.901,139.204 113.98,141.195 C113.905,141.358 113.789,141.606 113.865,141.928 C114.469,144.477 112.448,145.715 110.309,145.933 C109.913,145.973 109.509,145.939 109.109,145.939" fill="#2E201B"/>
    </g>
    <path d="M30.135,45.639 C30.351,46.133 30.708,46.447 31.259,46.277 C31.717,46.136 31.892,45.745 31.958,45.26 C32.321,42.602 32.873,39.994 34.118,37.584 C34.841,36.185 35.709,34.893 37.053,34.016 C37.595,33.663 37.723,33.135 37.826,32.597 C38.577,28.677 41.169,26.287 44.482,24.459 C45.034,24.155 45.395,24.438 45.811,24.617 C49.011,25.999 52.318,26.991 55.782,27.456 C58.519,27.823 61.07,26.984 63.646,26.31 C65.228,25.896 66.791,25.382 68.243,24.635 C69.003,24.245 69.537,24.376 70.21,24.765 C73.398,26.611 75.723,29.091 76.391,32.855 C76.453,33.203 76.504,33.58 76.829,33.811 C80.047,36.099 81.084,39.555 81.829,43.163 C81.974,43.866 82.06,44.582 82.205,45.285 C82.437,46.408 82.957,46.572 83.941,45.855 C84.288,45.639 83.776,45 84.401,44.92 C84.741,45.407 85.216,45.842 85.27,46.46 C85.311,46.924 85.632,47.647 84.514,47.352 C83.689,47.135 83.281,47.926 83.658,48.888 C84.611,51.318 85.289,53.818 85.357,56.435 C85.545,63.765 81.712,69.656 74.789,72.764 C74.571,72.862 74.356,72.979 74.127,73.038 C69.702,74.177 65.818,76.764 61.273,77.657 C55.399,78.81 50.073,77.522 44.993,74.663 C44.487,74.379 43.937,74.32 43.406,74.178 C38.299,72.815 33.917,70.365 31.13,65.696 C28.002,60.458 28.226,54.991 30.277,49.454 C30.402,49.118 30.587,48.796 30.654,48.45 C30.775,47.831 30.443,47.431 29.859,47.321 C28.712,47.103 28.55,46.762 29.185,45.699 C29.347,45.427 29.554,45.182 29.74,44.924 C30.37,44.888 29.882,45.468 30.135,45.639" fill="#FCDFCA"/>
    <path d="M94.154,96.515 C94.016,96.092 93.945,95.731 93.785,95.415 C93.189,94.242 92.937,93.24 94.508,92.553 C95.216,92.244 95.624,91.429 95.641,90.674 C95.661,89.796 96.133,89.461 96.771,89.064 C98.409,88.044 98.943,86.529 98.31,84.747 C98.164,84.337 98.21,84.155 98.499,83.84 C100.47,81.688 100.296,78.948 98.074,77.156 C97.753,76.898 97.587,76.694 97.648,76.285 C98.108,73.185 95.994,71.38 94.149,70.668 C92.205,69.919 89.44,70.956 87.814,72.972 C87.792,73 87.744,73.008 87.672,73.043 C87.265,72.054 86.789,71.118 85.792,70.57 C83.861,69.507 82.152,70.447 81.924,72.609 C81.652,75.199 81.129,77.661 79.281,79.762 C77.52,81.764 77.129,84.24 77.927,86.847 C78.396,88.375 76.948,90.308 75.371,90.252 C73.351,90.18 71.42,89.706 69.639,88.738 C69.024,88.403 68.424,88.092 67.99,88.837 C67.514,89.654 68.159,90.07 68.78,90.411 C70.63,91.428 72.644,91.883 74.721,92.117 C74.915,92.139 75.105,92.196 75.332,92.244 C75.279,92.43 75.254,92.589 75.189,92.729 C73.731,95.873 74.172,98.745 76.295,101.463 C77.539,103.055 77.531,102.703 75.899,103.787 C72.326,106.161 68.276,107.234 64.083,107.702 C58.143,108.366 52.204,108.343 46.325,107.049 C43.221,106.365 40.308,105.225 37.661,103.427 C37.033,103 36.863,102.642 37.396,102.045 C37.66,101.749 37.857,101.394 38.101,101.078 C39.874,98.775 40.327,96.251 39.259,93.533 C38.939,92.719 39.123,92.521 39.94,92.427 C42.416,92.142 44.741,91.304 47.02,90.328 C47.615,90.074 48.172,89.757 47.876,89.012 C47.572,88.25 46.99,88.283 46.293,88.593 C44.175,89.536 41.967,90.204 39.681,90.626 C38.563,90.832 37.747,90.696 37.084,89.573 C36.42,88.447 35.911,87.545 36.361,86.09 C37.074,83.78 36.421,81.501 34.841,79.718 C33.021,77.665 32.476,75.243 32.243,72.68 C32.038,70.431 30.146,69.439 28.206,70.648 C27.31,71.207 26.843,72.077 26.473,73.122 C25.756,72.085 24.773,71.457 23.688,70.971 C20.037,69.336 16.259,71.934 16.469,75.942 C16.497,76.466 16.515,76.848 15.978,77.252 C13.911,78.811 13.712,81.793 15.465,83.686 C15.746,83.99 16.076,84.146 15.842,84.755 C15.153,86.544 15.761,88.086 17.478,89.129 C18.055,89.479 18.42,89.801 18.478,90.562 C18.559,91.605 19.176,92.463 20.135,92.905 C20.98,93.295 20.987,93.811 20.69,94.533 C20.433,95.158 20.225,95.804 19.99,96.455 C19.552,96.527 19.392,96.134 19.17,95.89 C14.256,90.484 12.519,84.102 13.485,76.946 C14.467,69.681 19.004,65.46 25.594,63.057 C25.743,63.003 25.902,62.973 26.053,62.923 C27.228,62.537 27.793,62.878 28.304,64.125 C30.915,70.491 35.99,74.013 42.402,75.856 C43.289,76.111 44.095,76.477 44.917,76.888 C53.334,81.089 61.698,81.024 69.963,76.438 C70.612,76.077 71.326,76.022 72.006,75.811 C78.594,73.769 83.709,70.052 86.169,63.331 C86.386,62.74 86.732,62.707 87.282,62.801 C91.67,63.551 94.881,66.126 97.646,69.413 C100.612,72.938 100.984,77.2 100.884,81.504 C100.761,86.836 98.838,91.541 95.282,95.546 C94.974,95.892 94.73,96.327 94.154,96.515" fill="#FCDFCA"/>
    <path d="M7.32,136.447 C10.013,134.626 12.804,133.345 15.593,132.061 C17.005,131.411 17.053,131.147 16.329,129.828 C15.022,127.448 13.971,125.001 15.036,122.207 C15.195,121.788 14.949,121.446 14.818,121.07 C14.236,119.394 14.383,117.812 15.703,116.536 C16.287,115.973 16.581,115.341 16.765,114.593 C17.175,112.926 17.649,111.276 18.473,109.759 C18.794,109.166 19.158,108.579 19.597,108.07 C20.909,106.549 21.229,106.577 22.617,107.943 C26.345,111.612 30.903,113.841 35.8,115.467 C39.293,116.628 42.887,117.36 46.529,117.832 C47.262,117.927 47.468,118.176 47.481,118.859 C47.499,119.735 47.967,120.808 47.607,121.428 C47.222,122.094 46.089,121.371 45.277,121.517 C44.179,121.715 43.057,121.79 41.966,122.015 C37.201,122.999 34.921,127.113 34.066,130.985 C33.741,132.454 34.225,133.796 35.312,134.932 C38.384,138.144 37.704,140.502 33.39,141.684 C32.123,142.032 30.854,141.963 29.638,141.456 C28.83,141.119 28.031,140.75 27.264,140.331 C25.896,139.582 24.628,139.512 23.21,140.353 C21.253,141.514 19.142,142.342 16.84,142.638 C14.658,142.918 12.637,142.517 10.708,141.508 C9.422,140.834 9.061,140.99 8.825,142.414 C8.733,142.968 8.338,143.119 7.956,143.285 C6.478,143.928 4.924,143.974 3.373,143.68 C2.485,143.511 2.056,143.024 2.578,142.043 C3.568,140.18 4.617,138.469 7.135,138.651 C7.672,138.69 8.188,138.426 8.321,137.832 C8.486,137.095 7.925,136.78 7.32,136.447" fill="#FCDFCA"/>
    <path d="M106.808,136.444 C106.226,136.82 105.612,137.117 105.84,137.866 C106.07,138.625 106.748,138.638 107.408,138.68 C109.382,138.803 111.396,140.593 111.77,142.515 C111.87,143.034 111.677,143.382 111.178,143.527 C109.301,144.072 107.478,143.955 105.727,143.044 C105.346,142.845 105.357,142.509 105.332,142.13 C105.275,141.241 104.656,140.822 103.935,141.244 C99.658,143.752 95.515,142.878 91.558,140.638 C89.583,139.521 87.939,139.616 86.102,140.721 C83.609,142.221 81.067,142.331 78.538,140.733 C76.787,139.627 76.445,138.234 77.558,136.483 C77.835,136.047 78.14,135.606 78.517,135.26 C80.33,133.599 80.504,131.611 79.685,129.453 C77.552,123.829 74.477,121.354 67.408,121.643 C66.632,121.675 66.375,121.573 66.434,120.733 C66.624,118.001 66.601,118.05 69.302,117.603 C76.408,116.425 83.218,114.443 89.1,110.048 C90.191,109.233 91.25,108.368 92.103,107.307 C92.575,106.719 92.967,106.74 93.507,107.121 C94.623,107.907 95.369,108.988 95.902,110.206 C96.348,111.225 96.748,112.275 97.044,113.345 C97.417,114.689 97.782,115.944 98.823,117.026 C99.896,118.141 99.844,119.65 99.321,121.089 C99.186,121.46 98.952,121.8 99.114,122.227 C100.154,124.973 99.151,127.396 97.865,129.744 C97.091,131.156 97.13,131.414 98.575,132.072 C101.369,133.344 104.157,134.629 106.808,136.444" fill="#FCDFCA"/>
    <path d="M34.738,105.406 C35.123,105.302 35.411,105.445 35.712,105.697 C39.242,108.651 43.411,110.125 47.876,110.89 C48.693,111.031 49.527,111.074 50.353,111.162 C50.819,111.415 51.362,111.109 51.828,111.366 C52.37,111.439 52.913,111.511 53.456,111.584 C55.268,111.402 57.085,111.551 58.898,111.502 C59.49,111.546 60.092,111.406 60.678,111.592 C61.222,111.516 61.767,111.441 62.312,111.365 C62.777,111.111 63.319,111.414 63.785,111.163 C68.891,110.623 73.677,109.205 77.858,106.09 C78.31,105.753 78.712,105.207 79.416,105.405 C79.782,105.638 80.232,105.368 80.598,105.6 C81.321,105.697 82.043,105.795 82.766,105.892 C83.239,106.038 83.711,106.037 84.184,105.891 C89.165,105.023 90.734,103.735 92.935,101.798 C93.313,102.584 92.783,103.141 92.467,103.642 C90.785,106.311 88.459,108.322 85.793,109.965 C82.696,111.874 79.368,113.264 75.879,114.247 C73.64,114.878 71.384,115.482 69.052,115.699 C68.697,115.972 68.24,115.671 67.88,115.91 C65.984,116.252 64.077,116.465 62.148,116.433 C61.187,116.661 60.212,116.475 59.245,116.535 C57.91,116.535 56.575,116.535 55.24,116.535 C54.588,116.535 53.936,116.535 53.284,116.535 C52.859,116.5 52.424,116.617 52.009,116.446 C50.077,116.43 48.151,116.351 46.259,115.911 C45.899,115.67 45.441,115.972 45.087,115.699 C41.665,115.453 38.422,114.443 35.217,113.315 C30.868,111.783 26.853,109.657 23.589,106.321 C22.703,105.416 21.907,104.417 21.331,103.27 C21.122,102.853 20.901,102.426 21.214,101.854 C23.647,104.285 26.568,105.608 29.956,105.891 C30.428,106.037 30.901,106.038 31.374,105.892 C32.02,105.831 32.627,105.51 33.296,105.606 C33.75,105.349 34.282,105.652 34.738,105.406" fill="#B73432"/>
    <path d="M90.377,77.354 C90.365,79.273 91.102,80.767 92.449,82.096 C91.005,82.486 89.813,83.148 89.969,84.746 C90.065,85.728 90.09,86.526 89.573,87.453 C89.137,88.235 89.436,89.254 89.86,90.104 C90.094,90.574 90.472,90.885 91.02,90.679 C91.599,90.461 91.767,89.981 91.59,89.408 C91.484,89.068 91.292,88.752 91.478,88.287 C92.01,88.55 92.549,88.779 93.051,89.072 C94.057,89.658 94.183,90.752 93.15,91.204 C90.485,92.368 88.059,94.226 84.904,94.069 C82.956,93.973 82.007,93.188 82.053,91.214 C82.077,90.148 81.801,89.37 81.049,88.567 C78.921,86.297 78.838,83.107 80.89,80.729 C82.766,78.556 83.445,76.01 83.743,73.271 C83.789,72.848 83.507,72.196 84.196,72.075 C84.874,71.956 85.327,72.399 85.595,72.984 C86.299,74.525 86.092,76.124 85.729,77.682 C85.524,78.562 85.572,79.271 86.062,80.048 C86.546,80.816 86.912,81.674 87.216,82.533 C87.483,83.284 87.614,84.085 87.034,84.809 C86.637,85.305 86.721,85.809 87.219,86.157 C87.739,86.521 88.202,86.293 88.579,85.845 C89.439,84.822 89.409,83.638 89.146,82.438 C88.905,81.34 88.386,80.349 87.85,79.367 C87.204,78.184 87.473,77.71 88.82,77.585 C89.321,77.538 89.831,77.616 90.377,77.354" fill="#FCDFCA"/>
    <path d="M22.684,88.274 C22.849,88.84 22.604,89.19 22.516,89.57 C22.401,90.068 22.612,90.436 23.055,90.652 C23.542,90.889 23.941,90.673 24.181,90.266 C24.755,89.292 24.986,88.19 24.465,87.183 C24.107,86.489 23.953,85.97 24.156,85.169 C24.519,83.737 23.722,82.802 21.747,82.069 C23.034,80.768 23.803,79.252 23.772,77.465 C24.413,77.516 25.003,77.539 25.586,77.613 C26.623,77.745 26.89,78.238 26.39,79.18 C25.846,80.204 25.294,81.222 25.022,82.357 C24.736,83.556 24.687,84.733 25.506,85.78 C25.893,86.276 26.383,86.547 26.951,86.141 C27.451,85.784 27.469,85.278 27.099,84.779 C26.355,83.776 26.676,82.693 27.204,81.85 C28.416,79.916 28.752,77.975 28.144,75.759 C27.874,74.775 28.139,73.686 28.679,72.757 C28.954,72.284 29.4,71.946 29.972,72.074 C30.576,72.209 30.359,72.783 30.399,73.18 C30.676,75.923 31.344,78.476 33.202,80.663 C35.388,83.236 35.211,86.439 32.846,88.876 C32.29,89.448 32.087,90.004 32.095,90.773 C32.122,93.376 31.352,94.096 28.714,94.027 C27.259,93.989 25.864,93.688 24.584,92.974 C23.644,92.45 22.705,91.944 21.673,91.602 C20.991,91.376 20.365,91.009 20.341,90.107 C20.318,89.237 21.041,89.137 21.56,88.828 C21.896,88.626 22.265,88.478 22.684,88.274" fill="#FCDFCA"/>
    <path d="M34.872,89.592 C35.722,90.841 36.614,92.066 37.238,93.459 C38.225,95.661 38.206,97.758 36.735,99.789 C35.998,100.806 35.031,101.725 34.918,103.098 C34.893,103.399 34.659,103.462 34.415,103.514 C30.539,104.342 26.874,104.023 23.653,101.465 C22.456,100.515 21.579,99.365 21.719,97.695 C21.815,96.557 22.387,95.572 22.679,94.497 C22.838,93.911 23.186,94.352 23.387,94.469 C25.086,95.458 26.944,95.833 28.874,95.948 C31.972,96.133 33.892,94.418 34.025,91.306 C34.056,90.59 34.134,89.96 34.872,89.592" fill="#FCDFCA"/>
    <path d="M91.339,94.175 C91.675,95.139 92.054,96.061 92.315,97.016 C92.782,98.721 92.126,100.142 90.831,101.164 C88.248,103.202 85.407,104.31 81.96,103.801 C80.32,103.558 79.027,103.425 78.63,101.528 C78.525,101.027 78.036,100.593 77.683,100.161 C75.727,97.764 75.86,95.253 77.296,92.699 C77.896,91.63 78.6,90.619 79.253,89.587 C79.951,89.961 80.089,90.51 80.113,91.206 C80.226,94.485 82.266,96.251 85.521,95.924 C86.549,95.821 87.578,95.739 88.578,95.407 C89.523,95.093 90.4,94.645 91.339,94.175" fill="#FCDFCA"/>
    <path d="M55.626,124.846 C55.303,124.827 54.981,124.809 54.659,124.79 C54.216,124.538 53.685,124.865 53.247,124.578 C52.278,124.622 51.404,124.275 50.5,123.985 C49.873,123.784 49.843,123.405 49.86,122.912 C49.593,122.456 49.91,121.918 49.653,121.461 C49.642,121.214 49.632,120.967 49.621,120.719 C49.341,120.199 49.681,119.599 49.412,119.077 C49.4,118.842 49.388,118.608 49.375,118.373 C49.927,118.109 50.488,118.187 51.05,118.332 C51.303,118.345 51.556,118.358 51.809,118.372 C52.246,118.553 52.703,118.422 53.15,118.463 C53.697,118.463 54.243,118.462 54.79,118.463 C56.377,118.462 57.964,118.462 59.55,118.462 C60.029,118.462 60.509,118.462 60.987,118.462 C61.435,118.422 61.895,118.553 62.334,118.371 C62.584,118.354 62.834,118.336 63.083,118.319 C63.669,118.266 64.299,117.919 64.777,118.576 C64.76,118.818 64.743,119.059 64.726,119.301 C64.47,119.758 64.785,120.296 64.519,120.752 C64.439,121.491 64.169,122.202 64.275,122.97 C64.342,123.462 64.085,123.738 63.571,123.896 C61.834,124.427 60.085,124.858 58.253,124.838 C57.378,124.997 56.502,124.983 55.626,124.846" fill="#B73432"/>
    <path d="M20.48,77.784 C21.962,77.756 22.011,77.853 21.58,79.075 C21.154,80.285 20.236,80.924 19.091,81.297 C18.556,81.471 18.07,81.676 18.138,82.325 C18.239,83.295 17.841,83.119 17.283,82.765 C16.504,82.27 16.108,81.597 16.204,80.658 C16.302,79.704 16.549,78.882 17.572,78.471 C18.586,78.064 19.621,77.824 20.48,77.784" fill="#FBDFC9"/>
    <path d="M93.822,77.79 C94.548,77.825 95.538,78.071 96.513,78.436 C97.579,78.836 97.845,79.689 97.938,80.688 C98.03,81.685 97.571,82.354 96.742,82.831 C96.281,83.097 95.911,83.279 96.023,82.445 C96.115,81.752 95.664,81.496 95.073,81.303 C93.944,80.934 93.006,80.323 92.584,79.114 C92.144,77.856 92.204,77.749 93.822,77.79" fill="#FBDFC9"/>
    <path d="M39.608,106.795 C44.238,108.933 49.121,109.909 54.203,109.972 C55.583,110.175 56.97,110.007 58.352,110.062 C58.881,110.018 59.421,110.16 59.942,109.971 C61.819,110.107 63.64,109.64 65.487,109.46 C65.837,109.186 66.292,109.486 66.648,109.248 C69.147,108.834 71.521,108.011 73.858,107.063 C74.128,106.896 74.336,106.859 74.326,107.285 C72.106,108.341 69.831,109.237 67.398,109.671 C66.351,109.858 65.299,110.019 64.249,110.192 C63.805,110.456 63.274,110.132 62.831,110.401 C62.443,110.412 62.054,110.423 61.666,110.433 C61.009,110.642 60.334,110.486 59.669,110.535 C57.939,110.535 56.21,110.535 54.48,110.535 C53.812,110.486 53.133,110.643 52.473,110.433 C47.833,110.287 43.414,109.283 39.312,107.047 C39.29,106.82 39.325,106.662 39.608,106.795" fill="#B73532"/>
    <path d="M94.676,76.054 C93.184,76.095 91.722,74.987 90.095,74.363 C89.816,74.255 89.412,74.011 89.757,73.545 C90.289,72.827 92.532,72.102 93.389,72.379 C94.779,72.829 95.798,74.054 95.844,75.33 C95.869,76.037 95.757,76.141 94.676,76.054" fill="#FADFC9"/>
    <path d="M19.162,76.061 C18.219,76.227 18.346,75.724 18.331,75.289 C18.274,73.58 20.725,71.419 22.874,72.671 C23.462,73.015 24.476,73.136 24.43,73.893 C24.39,74.538 23.437,74.668 22.814,74.926 C21.563,75.444 20.389,76.203 19.162,76.061" fill="#FADFC9"/>
    <path d="M21.032,84.04 C22.195,84.048 22.607,84.559 22.183,85.232 C21.621,86.124 21.203,87.122 20.037,87.549 C19.113,87.886 18.062,87.663 17.621,86.736 C17.178,85.806 17.483,85.207 18.678,84.783 C19.537,84.478 20.417,84.232 21.032,84.04" fill="#FADFC9"/>
    <path d="M26.594,41.571 C27.033,40.834 26.822,39.817 27.673,39.152 C28.366,40.757 28.724,42.393 28.917,44.072 C28.973,44.562 28.787,44.943 28.268,45.059 C27.574,45.215 27.085,45.674 26.404,46.364 C26.507,44.657 26.289,43.201 25.871,41.779 C26.068,41.556 26.385,41.752 26.594,41.571" fill="#F9DEC8"/>
    <path d="M88.283,41.783 C87.862,43.186 87.622,44.616 87.738,46.319 C87.059,45.709 86.568,45.208 85.846,45.055 C85.18,44.913 85.155,44.343 85.233,43.814 C85.464,42.241 85.819,40.697 86.449,39.157 C87.329,39.764 87.104,40.824 87.546,41.571 C87.759,41.754 88.083,41.552 88.283,41.783" fill="#F9DEC8"/>
    <path d="M93.018,84.044 C94.014,84.249 95.123,84.569 96.15,85.102 C96.895,85.487 96.815,86.205 96.475,86.758 C96.074,87.409 95.52,88.095 94.59,87.803 C93.284,87.393 92.526,86.357 91.933,85.201 C91.578,84.507 91.985,84.03 93.018,84.044" fill="#FADFC9"/>
    <path d="M53.222,13.442 C53.343,13.342 53.455,13.229 53.587,13.146 C56.698,11.204 57.718,11.08 61.171,13.656 C61.85,14.329 62.386,15.09 62.525,16.06 C62.595,16.549 62.762,17.137 61.928,17.148 C61.486,16.839 61.509,16.312 61.352,15.877 C60.592,13.78 59.083,12.753 56.791,12.809 C54.875,12.855 53.456,14.005 52.84,16.019 C52.713,16.434 52.664,16.888 52.219,17.123 C51.5,16.753 51.735,16.142 51.867,15.593 C52.074,14.732 52.665,14.093 53.222,13.442" fill="#716F6F"/>
    <path d="M26.274,48.11 C28.023,50.009 27.813,52.038 26.963,54.215 C24.945,52.305 26.142,50.163 26.274,48.11" fill="#F7DCC7"/>
    <path d="M87.826,47.802 C88.011,50.144 89.166,52.25 87.141,54.287 C86.857,53.091 86.339,52.014 86.434,50.994 C86.527,49.997 87.247,49.059 87.826,47.802" fill="#F7DCC7"/>
    <path d="M53.222,13.442 C52.898,14.099 52.565,14.752 52.256,15.416 C52.004,15.955 51.821,16.506 52.28,17.04 C52.469,16.882 52.684,16.789 52.932,16.777 C53.109,16.759 53.287,16.758 53.465,16.759 C53.643,16.753 53.82,16.755 53.997,16.756 C54.236,16.751 54.475,16.752 54.714,16.749 C54.958,16.74 55.201,16.741 55.445,16.741 C55.757,16.736 56.068,16.728 56.379,16.735 C56.819,16.734 57.258,16.732 57.698,16.738 C58.011,16.736 58.324,16.738 58.637,16.768 C58.828,16.788 59.007,16.841 59.169,16.946 C59.281,17.038 59.3,17.147 59.229,17.273 C56.487,17.272 53.744,17.25 51.002,17.285 C50.102,17.297 50.07,16.979 50.46,16.322 C51.159,15.147 51.973,14.087 53.222,13.442" fill="#6A6767"/>
    <path d="M88.283,41.783 C88.02,41.771 87.736,41.835 87.546,41.571 C87.699,41.557 87.904,41.601 87.996,41.519 C88.4,41.157 87.937,39.297 87.301,38.669 C86.643,38.02 86.069,38.111 85.581,38.879 C85.149,38.871 85.271,38.632 85.38,38.399 C85.614,37.723 85.795,36.989 86.729,36.998 C87.69,37.007 88.126,37.682 88.396,38.45 C88.787,39.561 88.813,40.689 88.283,41.783" fill="#F2D8C5"/>
    <path d="M26.594,41.571 C26.408,41.831 26.13,41.772 25.871,41.779 C25.313,40.688 25.362,39.557 25.745,38.447 C26.011,37.676 26.454,37.001 27.414,36.999 C28.34,36.996 28.555,37.697 28.758,38.4 C28.873,38.63 28.969,38.852 28.568,38.876 C27.728,38.042 27.161,38.09 26.563,39.044 C26.202,39.622 26.11,40.29 25.935,40.928 C25.774,41.515 26.141,41.596 26.594,41.571" fill="#F2D9C5"/>
    <path d="M55.897,7.276 C56.602,7.074 57.309,6.997 58.022,7.237 C58.452,7.724 58.422,8.309 58.355,8.89 C58.28,9.542 57.97,9.897 57.258,9.657 C56.795,9.721 56.332,9.784 55.869,9.848 C55.329,8.985 55.365,8.128 55.897,7.276" fill="#FAFAFA"/>
    <path d="M57.258,9.657 C57.825,9.621 58.077,9.345 58.028,8.755 C57.987,8.252 58.021,7.744 58.022,7.237 C59.812,7.697 60.382,8.568 60.082,10.456 C59.137,10.189 58.198,9.923 57.258,9.657" fill="#CBCBCB"/>
    <path d="M55.897,7.276 C55.888,8.133 55.879,8.991 55.869,9.848 C55.582,9.97 55.304,10.136 55.005,10.204 C54.613,10.293 54.145,10.799 53.835,10.335 C53.56,9.924 53.651,9.327 53.921,8.852 C54.366,8.066 54.968,7.462 55.897,7.276" fill="#BBBCBC"/>
    <path d="M59.229,17.273 C59.229,17.21 59.23,17.147 59.23,17.084 C59.331,16.925 59.488,16.857 59.662,16.817 C59.834,16.783 60.007,16.773 60.181,16.772 C60.353,16.764 60.526,16.765 60.698,16.766 C60.873,16.761 61.046,16.765 61.22,16.779 C61.465,16.788 61.675,16.885 61.86,17.041 C62.563,16.931 62.289,16.487 62.226,16.068 C62.09,15.163 61.397,14.514 61.171,13.656 C62.382,14.29 63.168,15.308 63.774,16.501 C64.063,17.068 63.938,17.289 63.292,17.28 C61.937,17.259 60.583,17.273 59.229,17.273" fill="#696666"/>
    <path d="M28.154,25.896 C28.827,26.389 28.972,27.184 29.456,27.734 C30.144,28.515 30.858,29.253 31.75,29.802 C31.91,29.901 32.136,29.978 32.068,30.236 C32.02,30.42 31.888,30.437 31.703,30.399 C30.481,30.151 28.149,27.262 28.154,25.896" fill="#CDCECE"/>
    <path d="M29.126,24.243 C30.104,25.965 31.171,27.612 32.906,28.7 C31.313,28.659 29.033,25.937 29.126,24.243" fill="#CDCDCE"/>
    <path d="M29.977,22.532 C31.002,24.226 31.863,26.05 33.834,27.216 C32.258,27.313 29.914,24.34 29.977,22.532" fill="#D0D0D0"/>
    <path d="M27.351,27.678 C28.366,29.222 29.598,30.518 31.204,31.428 C31.36,31.517 31.425,31.673 31.285,31.813 C31.22,31.877 31.07,31.895 30.968,31.878 C29.801,31.696 27.408,29.032 27.351,27.678" fill="#CECFCF"/>
    <path d="M30.633,33.166 C28.96,33.125 26.385,30.7 26.47,29.21 C27.587,30.934 29.025,32.128 30.633,33.166" fill="#CECFCF"/>
    <path d="M28.2,49.56 C27.047,47.687 26.998,47.146 28.11,46.007 C27.633,47.382 28.874,48.294 28.2,49.56" fill="#ECD3C0"/>
    <path d="M86.18,46.315 C87.163,47.08 87.089,47.875 85.948,49.492 C85.118,48.347 86.637,47.413 86.18,46.315" fill="#EBD3C0"/>
    <path d="M55.061,25.225 C54.315,24.36 54.573,23.406 54.523,22.486 C54.513,22.288 54.583,22.066 54.837,22.124 C54.934,22.146 55.048,22.357 55.051,22.484 C55.069,23.397 55.061,24.311 55.061,25.225" fill="#D5D5D6"/>
    <path d="M48.095,20.409 C48.402,20.437 48.419,20.637 48.401,20.84 C48.34,21.522 48.395,22.185 48.656,22.829 C48.723,22.994 48.79,23.234 48.515,23.303 C48.429,23.325 48.25,23.252 48.218,23.178 C47.872,22.367 47.596,21.539 47.889,20.646 C47.921,20.548 48.035,20.476 48.095,20.409" fill="#C1C1C2"/>
    <path d="M52.592,24.648 C52.164,23.62 52.168,22.568 52.692,21.483 C52.782,22.531 52.871,23.579 52.96,24.626 C52.838,24.633 52.715,24.641 52.592,24.648" fill="#CCCCCD"/>
    <path d="M57.209,22.654 C57.312,23.729 57.335,24.804 56.904,25.884 C56.904,24.805 56.904,23.725 56.904,22.646 C57.006,22.649 57.107,22.652 57.209,22.654" fill="#DBDBDB"/>
    <path d="M50.69,23.975 C49.888,23.012 50.022,21.984 50.352,20.941 C50.548,21.948 50.62,22.963 50.69,23.975" fill="#CBCCCC"/>
    <path d="M58.99,111.602 C57.145,111.596 55.301,111.59 53.456,111.584 C55.292,111.115 57.152,111.483 59,111.416 C59.071,111.461 59.093,111.504 59.067,111.544 C59.041,111.582 59.015,111.602 58.99,111.602" fill="#796258"/>
    <path d="M54.423,110.43 C56.187,110.43 57.952,110.43 59.716,110.43 C59.792,110.478 59.816,110.523 59.787,110.565 C59.759,110.605 59.732,110.625 59.704,110.625 C57.948,110.625 56.191,110.625 54.435,110.625 C54.353,110.586 54.325,110.545 54.348,110.5 C54.372,110.453 54.397,110.43 54.423,110.43" fill="#AC5E44"/>
    <path d="M59.699,118.556 C58.023,118.558 56.347,118.56 54.67,118.561 C54.594,118.525 54.567,118.485 54.588,118.442 C54.61,118.396 54.632,118.374 54.656,118.374 C56.343,118.37 58.03,118.366 59.717,118.363 C59.791,118.413 59.813,118.458 59.784,118.499 C59.756,118.537 59.728,118.556 59.699,118.556" fill="#706058"/>
    <path d="M56.155,2.238 C56.765,1.866 57.375,1.864 57.985,2.24 C58.111,2.353 58.162,2.49 58.044,2.628 C57.898,2.8 57.716,2.785 57.533,2.68 C57.224,2.681 56.915,2.681 56.605,2.682 C56.422,2.784 56.238,2.8 56.093,2.627 C55.976,2.488 56.028,2.351 56.155,2.238" fill="#D5D5D5"/>
    <path d="M58.509,110.17 C57.076,110.07 55.621,110.429 54.203,109.972 C55.639,109.973 57.074,109.974 58.509,109.974 C58.588,110.018 58.614,110.061 58.588,110.105 C58.562,110.148 58.536,110.17 58.509,110.17" fill="#AC5D44"/>
    <path d="M55.138,116.436 C56.504,116.434 57.87,116.431 59.236,116.429 C59.312,116.478 59.336,116.523 59.307,116.565 C59.279,116.605 59.252,116.625 59.224,116.625 C57.865,116.626 56.506,116.627 55.147,116.627 C55.071,116.588 55.044,116.547 55.067,116.503 C55.09,116.458 55.114,116.436 55.138,116.436" fill="#AC5E44"/>
    <path d="M58.435,5.325 C57.473,5.084 56.8,4.961 55.949,5.322 C56.868,4.333 57.204,4.332 58.435,5.325" fill="#E6E6E6"/>
    <path d="M39.608,106.795 C39.509,106.879 39.411,106.963 39.312,107.047 C38.612,106.749 37.944,106.398 37.398,105.853 C37.36,105.722 37.405,105.656 37.546,105.667 C38.209,106.088 39.034,106.213 39.608,106.795" fill="#A55143"/>
    <path d="M74.326,107.285 C74.23,107.084 74.044,107.074 73.858,107.063 C74.496,106.738 75.134,106.412 75.772,106.087 C76.032,106.002 76.092,106.116 76.033,106.349 C75.464,106.661 74.895,106.973 74.326,107.285" fill="#A54F42"/>
    <path d="M85.118,40.327 C84.996,40.797 84.874,41.267 84.753,41.737 C84.648,41.713 84.544,41.689 84.44,41.665 C84.465,41.03 84.582,40.407 84.881,39.81 C85.106,39.916 84.971,40.186 85.118,40.327" fill="#C1B2A7"/>
    <path d="M29.269,39.795 C29.521,40.333 29.686,40.886 29.613,41.596 C29.047,41.258 29.201,40.714 29.024,40.324 C29.171,40.178 29.026,39.897 29.269,39.795" fill="#C1B1A7"/>
    <path d="M85.118,40.327 C84.913,40.213 84.915,40.003 84.881,39.81 C84.94,39.302 85.068,38.818 85.38,38.399 C85.447,38.559 85.514,38.719 85.581,38.879 C85.426,39.362 85.272,39.845 85.118,40.327" fill="#DAC6B7"/>
    <path d="M29.269,39.795 C29.224,39.988 29.233,40.207 29.024,40.324 C28.872,39.842 28.72,39.359 28.568,38.876 C28.631,38.717 28.695,38.559 28.758,38.4 C29.073,38.812 29.187,39.298 29.269,39.795" fill="#DAC6B8"/>
    <path d="M59.224,116.625 C59.227,116.56 59.231,116.494 59.236,116.429 C60.206,116.43 61.177,116.432 62.147,116.433 C61.196,116.841 60.202,116.61 59.224,116.625" fill="#936A59"/>
    <path d="M84.401,44.92 C84.089,45.153 84.345,45.667 83.941,45.855 C84.071,45.219 83.893,44.536 84.228,43.93 C84.282,43.93 84.337,43.93 84.391,43.93 C84.394,44.26 84.398,44.59 84.401,44.92" fill="#B0A69F"/>
    <path d="M55.626,124.846 C56.501,124.844 57.377,124.841 58.253,124.838 C57.378,125.196 56.502,125.186 55.626,124.846" fill="#6E5D56"/>
    <path d="M30.135,45.639 C30.003,45.401 29.872,45.163 29.74,44.924 C29.745,44.593 29.749,44.261 29.753,43.929 C29.806,43.93 29.858,43.93 29.911,43.93 C30.224,44.469 30.105,45.064 30.135,45.639" fill="#B0A79F"/>
    <path d="M76.717,105.549 C77.021,105.194 77.41,104.972 77.974,104.749 C77.709,105.414 77.14,105.544 76.754,105.868 C76.643,105.773 76.63,105.667 76.717,105.549" fill="#9E624F"/>
    <path d="M64.777,118.576 C64.274,118.082 63.639,118.461 63.083,118.319 C63.549,117.916 64.105,118.108 64.621,118.114 C64.912,118.117 65.003,118.326 64.777,118.576" fill="#6B5B55"/>
    <path d="M59.704,110.625 C59.707,110.56 59.711,110.495 59.716,110.43 C60.366,110.431 61.016,110.432 61.666,110.433 C61.044,110.821 60.364,110.616 59.704,110.625" fill="#936C5A"/>
    <path d="M55.138,116.436 C55.143,116.5 55.146,116.564 55.147,116.627 C54.51,116.63 53.873,116.633 53.236,116.636 C53.156,116.6 53.127,116.559 53.148,116.513 C53.17,116.466 53.194,116.442 53.218,116.442 C53.858,116.44 54.498,116.438 55.138,116.436" fill="#966B58"/>
    <path d="M54.423,110.43 C54.427,110.495 54.431,110.56 54.435,110.625 C53.776,110.615 53.096,110.821 52.473,110.433 C53.123,110.432 53.773,110.431 54.423,110.43" fill="#936B59"/>
    <path d="M57.533,2.68 C57.765,2.617 58.021,2.579 57.985,2.24 C58.331,2.31 58.65,2.593 58.457,2.852 C58.194,3.204 57.833,2.836 57.533,2.68" fill="#8E8D8E"/>
    <path d="M56.155,2.238 C56.114,2.58 56.372,2.619 56.605,2.682 C56.281,2.975 55.909,2.905 55.512,2.861 C55.607,2.481 55.836,2.312 56.155,2.238" fill="#898989"/>
    <path d="M51.05,118.332 C50.492,118.346 49.934,118.359 49.375,118.373 C49.921,117.866 50.485,118.054 51.05,118.332" fill="#946A58"/>
    <path d="M76.717,105.549 C76.729,105.655 76.741,105.761 76.754,105.868 C76.513,106.028 76.273,106.188 76.033,106.349 C75.946,106.261 75.859,106.174 75.772,106.087 C76.022,105.793 76.364,105.661 76.717,105.549" fill="#975E4E"/>
    <path d="M54.656,118.374 C54.663,118.436 54.667,118.499 54.67,118.562 C54.113,118.563 53.556,118.565 52.998,118.567 C52.917,118.529 52.888,118.487 52.911,118.442 C52.936,118.396 52.96,118.372 52.986,118.372 C53.542,118.373 54.099,118.373 54.656,118.374" fill="#926B5A"/>
    <path d="M49.412,119.077 C49.809,119.583 49.566,120.17 49.622,120.72 C49.208,120.216 49.441,119.63 49.412,119.077" fill="#916A59"/>
    <path d="M84.223,42.761 C84.197,42.532 84.123,42.283 84.408,42.159 C84.455,42.138 84.579,42.19 84.603,42.24 C84.738,42.525 84.654,42.774 84.44,42.99 C84.34,42.939 84.268,42.863 84.223,42.761" fill="#938C87"/>
    <path d="M58.99,111.602 C58.991,111.539 58.995,111.477 59,111.416 C59.563,111.438 60.155,111.181 60.678,111.592 C60.115,111.595 59.552,111.598 58.99,111.602" fill="#936C5A"/>
    <path d="M37.546,105.667 C37.497,105.729 37.447,105.791 37.398,105.853 C37.12,105.661 36.843,105.469 36.431,105.183 C37.045,105.122 37.362,105.258 37.546,105.667" fill="#975E4D"/>
    <path d="M63.785,111.163 C63.338,111.548 62.807,111.326 62.312,111.365 C62.762,111 63.286,111.173 63.785,111.163" fill="#956C59"/>
    <path d="M51.828,111.366 C51.332,111.328 50.8,111.547 50.353,111.162 C50.852,111.172 51.377,111 51.828,111.366" fill="#966A57"/>
    <path d="M58.509,110.17 C58.509,110.105 58.509,110.039 58.509,109.974 C58.987,109.973 59.465,109.972 59.942,109.971 C59.508,110.352 58.988,110.114 58.509,110.17" fill="#AC5E44"/>
    <path d="M62.831,110.401 C63.257,110.011 63.773,110.234 64.249,110.192 C63.824,110.587 63.312,110.386 62.831,110.401" fill="#7C6256"/>
    <path d="M84.184,105.891 C83.711,106.212 83.238,106.216 82.766,105.892 C83.238,105.892 83.711,105.891 84.184,105.891" fill="#AD5D43"/>
    <path d="M59.699,118.556 C59.705,118.492 59.71,118.427 59.717,118.362 C60.196,118.366 60.674,118.37 61.152,118.374 C61.229,118.421 61.252,118.465 61.224,118.507 C61.196,118.547 61.169,118.567 61.141,118.567 C60.661,118.563 60.18,118.56 59.699,118.556" fill="#946C59"/>
    <path d="M26.358,75.489 C26.181,75.615 26.074,75.744 25.944,75.772 C25.769,75.81 25.618,75.669 25.663,75.501 C25.7,75.366 25.847,75.214 25.978,75.171 C26.048,75.148 26.189,75.341 26.358,75.489" fill="#EBD5C3"/>
    <path d="M88.496,75.499 C88.43,75.775 88.29,75.813 88.123,75.76 C87.957,75.708 87.863,75.584 87.921,75.406 C87.965,75.269 88.018,75.076 88.226,75.217 C88.344,75.296 88.428,75.426 88.496,75.499" fill="#EBD4C2"/>
    <path d="M34.738,105.406 C34.301,105.787 33.781,105.568 33.296,105.606 C33.728,105.19 34.253,105.438 34.738,105.406" fill="#9E6651"/>
    <path d="M31.374,105.892 C30.901,106.215 30.428,106.213 29.956,105.891 C30.428,105.891 30.901,105.892 31.374,105.892" fill="#AD5C43"/>
    <path d="M49.653,121.461 C50.035,121.9 49.818,122.424 49.86,122.911 C49.479,122.473 49.67,121.952 49.653,121.461" fill="#966B57"/>
    <path d="M53.247,124.578 C53.72,124.635 54.235,124.409 54.659,124.79 C54.18,124.778 53.668,124.978 53.247,124.578" fill="#A2654F"/>
    <path d="M64.519,120.752 C64.561,120.264 64.343,119.74 64.726,119.301 C64.709,119.792 64.9,120.313 64.519,120.752" fill="#966A57"/>
    <path d="M53.218,116.442 C53.223,116.507 53.229,116.572 53.236,116.637 C52.82,116.619 52.373,116.799 52.009,116.446 C52.412,116.445 52.815,116.443 53.218,116.442" fill="#746159"/>
    <path d="M66.648,109.248 C66.313,109.605 65.879,109.415 65.487,109.46 C65.822,109.106 66.247,109.241 66.648,109.248" fill="#A2634E"/>
    <path d="M52.986,118.372 C52.989,118.437 52.993,118.503 52.998,118.568 C52.597,118.532 52.158,118.726 51.809,118.372 C52.201,118.372 52.594,118.372 52.986,118.372" fill="#AE5B42"/>
    <path d="M29.911,43.93 L29.832,43.932 L29.753,43.929 C29.727,43.533 29.7,43.137 29.674,42.74 C29.758,42.669 29.837,42.67 29.911,42.755 C29.911,43.147 29.911,43.538 29.911,43.93" fill="#CCBEB2"/>
    <path d="M80.598,105.6 C80.197,105.578 79.763,105.754 79.415,105.405 C79.818,105.421 80.256,105.218 80.598,105.6" fill="#976B58"/>
    <path d="M61.141,118.567 C61.146,118.502 61.15,118.438 61.152,118.373 C61.546,118.373 61.94,118.372 62.334,118.371 C61.984,118.726 61.544,118.531 61.141,118.567" fill="#AD5C43"/>
    <path d="M45.087,115.699 C45.483,115.74 45.92,115.555 46.259,115.911 C45.855,115.911 45.424,116.064 45.087,115.699" fill="#A1664F"/>
    <path d="M29.911,42.755 C29.831,42.757 29.752,42.752 29.674,42.74 C29.502,42.618 29.407,42.466 29.577,42.288 C29.635,42.227 29.767,42.236 29.865,42.213 C29.881,42.394 29.896,42.575 29.911,42.755" fill="#9B938E"/>
    <path d="M67.88,115.91 C68.219,115.555 68.656,115.739 69.052,115.699 C68.714,116.064 68.283,115.911 67.88,115.91" fill="#A1664F"/>
    <path d="M84.223,42.761 C84.295,42.837 84.367,42.913 84.44,42.99 C84.424,43.303 84.407,43.617 84.391,43.93 L84.309,43.932 L84.228,43.93 C84.226,43.541 84.224,43.151 84.223,42.761" fill="#CCBEB2"/>
    <path d="M40.87,38.103 C41.329,38.014 41.516,38.391 41.765,38.784 C44.107,42.482 46.963,45.747 50.221,48.66 C51.17,49.509 52.167,50.318 53.425,50.697 C53.797,50.809 54.133,50.99 53.974,51.448 C53.842,51.83 53.503,51.786 53.167,51.711 C47.938,50.552 43.211,48.35 39.217,44.758 C37.619,43.32 37.764,40.297 39.294,38.787 C39.708,38.379 40.19,38.13 40.87,38.103" fill="#2E201B"/>
    <path d="M75.942,42.042 C75.908,43.155 75.627,44.124 74.777,44.86 C70.773,48.328 66.145,50.532 60.995,51.688 C60.573,51.783 60.163,51.839 60.007,51.337 C59.898,50.986 60.244,50.856 60.493,50.767 C62.794,49.94 64.436,48.226 66.077,46.546 C68.424,44.143 70.593,41.585 72.364,38.713 C72.826,37.964 73.645,37.891 74.49,38.548 C75.639,39.442 75.816,40.759 75.942,42.042" fill="#2E201B"/>
    <path d="M49.209,66.832 C51.728,66.091 54.199,65.361 56.762,64.998 C59.192,64.654 61.626,64.814 64.057,64.842 C64.702,64.85 65.025,64.785 64.975,64.062 C64.957,63.802 65.08,63.522 65.178,63.266 C65.29,62.973 65.518,62.804 65.838,62.944 C66.087,63.053 66.159,63.297 66.081,63.545 C65.63,64.966 66.451,65.801 67.451,66.558 C67.733,66.771 67.917,67.025 67.675,67.366 C67.442,67.695 67.067,67.701 66.837,67.455 C64.188,64.621 60.799,65.923 57.715,65.942 C55.095,65.958 52.564,66.878 50.043,67.637 C49.099,67.921 48.414,68.399 47.915,69.221 C47.773,69.454 47.553,69.645 47.35,69.835 C47.078,70.088 46.729,70.344 46.406,70.036 C46.048,69.696 46.385,69.384 46.633,69.135 C47.171,68.595 47.691,68.047 47.949,67.307 C48.094,66.892 48.254,66.491 48.045,66.037 C47.858,65.632 47.861,65.197 48.38,65.076 C48.95,64.943 48.987,65.485 49.098,65.835 C49.19,66.129 49.172,66.458 49.209,66.832" fill="#2F211D"/>
    <path d="M50.489,55.971 C49.722,55.963 49.098,55.809 48.524,55.533 C46.377,54.5 44.243,53.439 42.106,52.386 C41.721,52.196 41.185,52.037 41.449,51.462 C41.745,50.818 42.218,51.272 42.558,51.442 C44.227,52.28 46.027,52.579 47.851,52.765 C48.465,52.828 48.879,53.049 49.175,53.608 C49.493,54.207 49.901,54.767 50.609,54.967 C50.99,55.075 51.141,55.306 51.055,55.674 C50.966,56.057 50.628,55.938 50.489,55.971" fill="#2F211D"/>
    <path d="M63.875,55.974 C63.491,55.962 63.16,56.085 63.054,55.712 C62.958,55.372 63.032,55.08 63.439,54.977 C63.933,54.852 64.346,54.52 64.534,54.11 C65.064,52.951 66.03,52.703 67.148,52.63 C68.798,52.523 70.343,52.023 71.816,51.293 C72.139,51.133 72.431,51.045 72.621,51.426 C72.789,51.763 72.677,52.042 72.327,52.207 C69.783,53.411 67.242,54.621 64.691,55.808 C64.412,55.938 64.072,55.937 63.875,55.974" fill="#2F211D"/>
    <path d="M57.173,62.974 C55.231,62.982 53.542,62.748 52.136,61.604 C51.578,61.149 51.069,60.592 51.47,59.755 C51.597,59.489 51.781,59.252 52.112,59.353 C52.341,59.423 52.547,59.609 52.488,59.888 C52.307,60.751 52.952,61.016 53.523,61.264 C55.787,62.246 58.09,62.251 60.371,61.343 C61.008,61.089 61.748,60.795 61.624,59.833 C61.59,59.568 61.762,59.365 62.034,59.343 C62.364,59.316 62.541,59.536 62.62,59.83 C62.858,60.706 62.407,61.292 61.753,61.754 C60.321,62.768 58.682,63.007 57.173,62.974" fill="#30231E"/>
    <path d="M39.295,53.304 C40.291,54.18 41.211,55.128 42.011,56.187 C42.105,56.441 42.07,56.645 41.792,56.755 C41.023,56.663 40.778,55.928 40.289,55.497 C39.782,55.05 39.245,54.646 38.718,54.227 C38.125,53.752 37.475,53.35 36.908,52.842 C36.293,52.774 35.766,52.501 35.201,52.178 C36.081,51.793 36.819,52.005 39.295,53.304" fill="#3D2C2A"/>
    <path d="M72.144,55.938 C72.568,55.299 72.993,54.66 73.417,54.021 C76.913,52.102 77.601,51.848 78.852,52.068 C78.56,52.508 78.075,52.451 77.723,52.631 C77.076,53.221 76.181,53.302 75.46,53.738 C74.072,54.343 73.411,55.679 72.457,56.722 C71.903,56.64 71.711,56.413 72.144,55.938" fill="#3D2C2A"/>
    <path d="M78.232,52.842 C79.898,52.723 81.574,52.389 83.214,53.1 C82.043,53.548 80.797,52.879 79.629,53.307 C79.448,53.472 79.23,53.557 78.994,53.605 C78.253,53.752 77.52,53.924 76.853,54.303 C76.675,54.391 76.503,54.489 76.323,54.572 C75.967,54.735 75.575,55.003 75.286,54.52 C75.014,54.063 75.324,53.79 75.7,53.58 C76.537,53.314 77.288,52.745 78.232,52.842" fill="#3D2F2C"/>
    <path d="M34.504,53.812 C34.285,53.675 34.072,53.519 33.789,53.578 C32.847,53.092 31.792,53.428 30.817,53.152 C32.526,52.32 34.093,53.175 35.699,53.57 C36.305,53.544 36.784,53.886 37.3,54.123 C37.507,54.287 37.583,54.5 37.54,54.758 C37.122,55.496 36.64,55.064 36.167,54.836 C35.975,54.723 35.783,54.605 35.584,54.502 C35.215,54.286 34.785,54.166 34.504,53.812" fill="#372724"/>
    <path d="M37.149,54.238 C36.568,54.228 36.137,53.892 35.699,53.57 C35.925,53.035 36.83,53.624 36.908,52.842 C37.756,52.898 38.227,53.583 38.852,54.011 C38.351,54.581 37.698,54.021 37.149,54.238" fill="#F5D4C3"/>
    <path d="M78.232,52.842 C77.415,53.143 76.598,53.444 75.781,53.745 C75.644,53.645 75.426,53.727 75.325,53.544 C76.051,53.047 76.868,52.789 77.723,52.631 C77.893,52.701 78.062,52.772 78.232,52.842" fill="#EECABC"/>
    <path d="M80.829,54.259 C80.589,54.099 80.349,53.939 80.109,53.779 C80.741,53.351 80.721,53.901 80.829,54.259" fill="#FBDBC6"/>
    <path d="M78.911,53.358 C79.15,53.341 79.39,53.324 79.629,53.307 C79.629,53.384 79.63,53.461 79.629,53.538 C79.549,53.618 79.469,53.699 79.389,53.779 C78.946,53.961 78.754,53.858 78.911,53.358" fill="#FBDBC6"/>
    <path d="M82.03,55.698 C81.79,55.378 81.55,55.059 81.309,54.739 C81.931,54.772 82.052,55.182 82.03,55.698" fill="#FBDBC6"/>
    <path d="M57.416,107.773 C56.653,107.842 55.874,107.685 55.089,107.573 C54.778,107.528 54.54,107.4 54.529,107.078 C54.518,106.758 54.741,106.631 55.051,106.555 C56.549,106.185 58.039,106.39 59.533,106.56 C59.8,106.59 59.986,106.719 60.014,106.992 C60.045,107.307 59.909,107.49 59.576,107.582 C58.876,107.775 58.169,107.801 57.416,107.773" fill="#31231E"/>
    <path d="M61.86,17.041 C61.623,17.042 61.385,17.042 61.147,17.043 C60.998,16.802 60.941,16.529 60.866,16.26 C60.368,14.464 59.014,13.351 57.278,13.299 C55.422,13.243 53.979,14.315 53.391,16.187 C53.297,16.489 53.242,16.81 52.996,17.042 C52.757,17.042 52.519,17.041 52.28,17.04 C52.632,15.374 53.142,13.921 54.882,13.043 C58.599,11.167 61.88,14.133 61.86,17.041" fill="#787777"/>
    <path d="M52.996,17.042 C53.02,14.454 54.917,13.11 57.069,12.989 C59.149,12.872 61.009,14.501 61.253,16.588 C61.27,16.733 61.185,16.891 61.147,17.043 C60.986,17.042 60.825,17.04 60.663,17.039 C60.238,16.59 60.264,15.937 59.919,15.441 C59.022,14.152 57.737,13.78 56.287,13.959 C55.052,14.111 54.445,15.069 53.985,16.111 C53.841,16.437 53.747,16.784 53.476,17.037 C53.316,17.039 53.156,17.041 52.996,17.042" fill="#807F7F"/>
    <path d="M60.185,17.038 C60.022,17.037 59.859,17.036 59.696,17.035 C59.289,16.842 59.262,16.386 59.033,16.069 C58.505,15.341 57.865,14.853 56.919,14.989 C56.037,15.116 55.333,15.516 55.018,16.415 C54.939,16.643 54.853,16.865 54.676,17.038 C54.435,17.037 54.195,17.036 53.955,17.036 C53.695,15.886 54.599,14.375 55.777,13.989 C57.331,13.479 59.233,14.145 60.054,15.507 C60.34,15.983 60.62,16.487 60.185,17.038" fill="#8E8D8E"/>
    <path d="M54.676,17.038 C54.772,15.594 55.564,14.769 56.955,14.661 C58.33,14.555 59.282,15.379 59.696,17.035 C59.541,17.051 59.385,17.068 59.23,17.084 C59.068,17.069 58.906,17.053 58.744,17.038 C58.534,16.846 58.44,16.571 58.271,16.354 C57.68,15.59 56.802,15.542 56.11,16.234 C55.858,16.487 55.677,16.806 55.396,17.035 C55.156,17.036 54.916,17.037 54.676,17.038" fill="#979798"/>
    <path d="M60.185,17.038 C60.153,15.206 59.106,14.337 57.141,14.148 C55.308,13.971 53.976,15.51 53.955,17.036 C53.795,17.036 53.636,17.037 53.476,17.037 C53.818,14.936 55.112,13.542 56.647,13.618 C59.269,13.748 60.515,14.809 60.663,17.04 C60.504,17.039 60.344,17.038 60.185,17.038" fill="#878787"/>
    <path d="M55.396,17.035 C55.599,16.022 56.185,15.359 57.244,15.43 C58.151,15.49 58.787,15.996 58.744,17.038 C58.425,17.041 58.105,17.043 57.786,17.046 C57.308,16.64 56.83,16.64 56.352,17.046 C56.034,17.042 55.715,17.038 55.396,17.035" fill="#A1A1A1"/>
    <path d="M56.352,17.046 C56.83,16.146 57.308,16.146 57.786,17.046 C57.308,17.046 56.83,17.046 56.352,17.046" fill="#A9A9A9"/>
  </g>
</svg>
